<svg id="visual" viewBox="0 0 540 400" width="540" height="400" xmlns="http://www.w3.org/2000/svg" xmlns:xlink="http://www.w3.org/1999/xlink" version="1.1"><path d="m0 387 12.8 -3.2c12.9 -3.1 38.5 -9.5 64.2 -23 25.7 -13.5 51.3 -34.1 77 -37 25.7 -2.8 51.3 12.2 77.2 15.5 25.8 3.4 51.8 -5 77.6 -19.8 25.9 -14.8 51.5 -36.2 77.2 -42.3 25.7 -6.2 51.3 2.8 77 6.5 25.7 3.6 51.3 2 64.2 1.1l12.8 -0.8V0H0Z" fill="#fa7268"/><path d="m0 193 12.8 22c12.9 22 38.5 66 64.2 78.3 25.7 12.4 51.3 -7 77 -16.5 25.7 -9.5 51.3 -9.1 77.2 -9 25.8 0.2 51.8 0.2 77.6 4.4 25.9 4.1 51.5 12.5 77.2 20.6 25.7 8.2 51.3 16.2 77 5.9 25.7 -10.4 51.3 -39 64.2 -53.4L540 231V0H0Z" fill="#ef5f67"/><path d="m0 231 12.8 2.7c12.9 2.6 38.5 8 64.2 3.5 25.7 -4.5 51.3 -18.9 77 -17.2 25.7 1.7 51.3 19.3 77.2 23.7 25.8 4.3 51.8 -4.7 77.6 -5 25.9 -0.4 51.5 8 77.2 -1.2 25.7 -9.2 51.3 -35.8 77 -50 25.7 -14.2 51.3 -15.8 64.2 -16.7l12.8 -0.8V0H0Z" fill="#e34c67"/><path d="m0 90 12.8 9.2c12.9 9.1 38.5 27.5 64.2 33.6 25.7 6.2 51.3 0.2 77 0.4 25.7 0.1 51.3 6.5 77.2 14.8 25.8 8.3 51.8 18.7 77.6 16.5 25.9 -2.2 51.5 -16.8 77.2 -20 25.7 -3.2 51.3 5.2 77 0.8 25.7 -4.3 51.3 -21.3 64.2 -29.8L540 107V0H0Z" fill="#d53867"/><path d="m0 106 12.8 0.7c12.9 0.6 38.5 2 64.2 4 25.7 2 51.3 4.6 77 -2.5 25.7 -7.2 51.3 -24.2 77.2 -32 25.8 -7.9 51.8 -6.5 77.6 -5 25.9 1.5 51.5 3.1 77.2 3.3 25.7 0.2 51.3 -1.2 77 -0.2 25.7 1 51.3 4.4 64.2 6L540 82V0H0Z" fill="#c62368"/></svg>