<svg width="40px" height="40px" viewBox="0 0 1.2 1.2" fill="none" xmlns="http://www.w3.org/2000/svg"><path d="M0.3 0.807 0.207 0.2H0.15a0.05 0.05 0 0 1 0 -0.1h0.099a0.05 0.05 0 0 1 0.033 0.012 0.05 0.05 0 0 1 0.017 0.031L0.316 0.25H0.7v0.1H0.331l0.061 0.4h0.47L0.937 0.5h0.104L0.947 0.814A0.05 0.05 0 0 1 0.9 0.85H0.351A0.05 0.05 0 0 1 0.317 0.838 0.05 0.05 0 0 1 0.3 0.807zM0.5 1a0.1 0.1 0 1 1 -0.2 0 0.1 0.1 0 0 1 0.2 0zm0.45 0a0.1 0.1 0 1 1 -0.2 0 0.1 0.1 0 0 1 0.2 0zm0 -0.9A0.05 0.05 0 0 1 1 0.15V0.2h0.05a0.05 0.05 0 1 1 0 0.1H1v0.05a0.05 0.05 0 1 1 -0.1 0V0.3H0.85a0.05 0.05 0 1 1 0 -0.1H0.9V0.15A0.05 0.05 0 0 1 0.95 0.1z" fill="#0D0D0D"/></svg>