<svg fill="#000000" xmlns="http://www.w3.org/2000/svg" width="40px" height="40px" viewBox="0 0 2.6 2.6" enable-background="new 0 0 52 52" xml:space="preserve"><path d="M2.43 1.15H0.77c-0.045 0 -0.065 -0.055 -0.035 -0.085l0.48 -0.48c0.03 -0.03 0.03 -0.075 0 -0.105l-0.11 -0.11c-0.03 -0.03 -0.075 -0.03 -0.105 0L0.125 1.25c-0.03 0.03 -0.03 0.075 0 0.105L1 2.23c0.03 0.03 0.075 0.03 0.105 0l0.105 -0.105c0.03 -0.03 0.03 -0.075 0 -0.105l-0.48 -0.48c-0.03 -0.035 -0.01 -0.09 0.035 -0.09h1.66c0.04 0 0.075 -0.03 0.075 -0.07v-0.15c0 -0.04 -0.03 -0.08 -0.07 -0.08z"/></svg>