<svg width="100px" height="100px" viewBox="0 0 3 3" fill="none" xmlns="http://www.w3.org/2000/svg">
  <path d="M1.813 1.25c0 -0.099 0.132 -0.125 0.167 -0.033C2.063 1.441 2.125 1.642 2.125 1.75a0.625 0.625 0 0 1 -1.25 0c0 -0.116 0.071 -0.339 0.165 -0.583 0.122 -0.316 0.183 -0.474 0.258 -0.482 0.024 -0.003 0.05 0.002 0.072 0.013 0.067 0.035 0.067 0.207 0.067 0.552a0.188 0.188 0 0 0 0.375 0Z" stroke="#eb5960" stroke-width="0.225"/>
  <path d="m1.375 2.375 -0.033 -0.082a0.426 0.426 0 0 1 0.063 -0.424 0.122 0.122 0 0 1 0.19 0c0.096 0.12 0.12 0.282 0.063 0.424L1.625 2.375" stroke="#eb5960" stroke-width="0.225"/>
</svg>
