<svg fill="#000000" width="40px" height="40px" viewBox="-0.1 -0.2 1.2 1.2" xmlns="http://www.w3.org/2000/svg" preserveAspectRatio="xMinYMin" class="jam jam-camera"><path d="M0.284 0.25H0.2a0.1 0.1 0 0 0 -0.1 0.1v0.25a0.1 0.1 0 0 0 0.1 0.1h0.6a0.1 0.1 0 0 0 0.1 -0.1V0.35a0.1 0.1 0 0 0 -0.1 -0.1h-0.084l-0.019 -0.075A0.1 0.1 0 0 0 0.6 0.1H0.4a0.1 0.1 0 0 0 -0.097 0.075L0.284 0.25zm-0.078 -0.1C0.229 0.064 0.307 0 0.4 0h0.2a0.2 0.2 0 0 1 0.194 0.15H0.8a0.2 0.2 0 0 1 0.2 0.2v0.25a0.2 0.2 0 0 1 -0.2 0.2H0.2a0.2 0.2 0 0 1 -0.2 -0.2V0.35a0.2 0.2 0 0 1 0.2 -0.2h0.006zM0.5 0.65a0.2 0.2 0 1 1 0 -0.4 0.2 0.2 0 0 1 0 0.4zm0 -0.1a0.1 0.1 0 1 0 0 -0.2 0.1 0.1 0 0 0 0 0.2zm0.3 -0.15a0.05 0.05 0 1 0 0 -0.1 0.05 0.05 0 0 0 0 0.1z"/></svg>