<svg fill="#000000" width="40px" height="40px" viewBox="0 0 1.2 1.2" xmlns="http://www.w3.org/2000/svg" data-name="Layer 1"><path d="M0.7 0.9a0.05 0.05 0 0 0 0.05 -0.05v-0.1a0.05 0.05 0 0 0 -0.1 0v0.1a0.05 0.05 0 0 0 0.05 0.05Zm-0.2 0a0.05 0.05 0 0 0 0.05 -0.05v-0.1a0.05 0.05 0 0 0 -0.1 0v0.1a0.05 0.05 0 0 0 0.05 0.05Zm0.45 -0.6h-0.069l-0.087 -0.173a0.05 0.05 0 1 0 -0.089 0.045L0.769 0.3H0.431l0.064 -0.128a0.05 0.05 0 0 0 -0.089 -0.045L0.319 0.3H0.25a0.15 0.15 0 0 0 -0.046 0.292l0.037 0.373a0.15 0.15 0 0 0 0.15 0.135h0.419a0.15 0.15 0 0 0 0.15 -0.135l0.037 -0.373A0.15 0.15 0 0 0 0.95 0.3Zm-0.091 0.655a0.05 0.05 0 0 1 -0.05 0.045H0.391a0.05 0.05 0 0 1 -0.05 -0.045L0.305 0.6h0.59ZM0.95 0.5H0.25a0.05 0.05 0 0 1 0 -0.1h0.7a0.05 0.05 0 0 1 0 0.1Z"/></svg>