<svg width="40px" height="40px" viewBox="0 0 1.6 1.6" xmlns="http://www.w3.org/2000/svg"><g fill="none" fill-rule="evenodd"><path d="M0 0h1.6v1.6H0z"/><path d="M1.15 0a0.35 0.35 0 0 1 0.35 0.35v0.9a0.35 0.35 0 0 1 -0.35 0.35H0.45a0.35 0.35 0 0 1 -0.35 -0.35V0.35a0.35 0.35 0 0 1 0.35 -0.35zm0.25 1.1H0.2v0.15a0.25 0.25 0 0 0 0.239 0.25L0.45 1.5h0.7a0.25 0.25 0 0 0 0.25 -0.25zm-0.5 0.15a0.05 0.05 0 0 1 0 0.1h-0.2a0.05 0.05 0 0 1 0 -0.1zm0.5 -0.65H0.2v0.4h1.2zm-0.5 0.15a0.05 0.05 0 0 1 0 0.1h-0.2a0.05 0.05 0 0 1 0 -0.1zm0.25 -0.65H0.45a0.25 0.25 0 0 0 -0.25 0.25v0.15h1.2V0.35a0.25 0.25 0 0 0 -0.239 -0.25zm-0.25 0.15a0.05 0.05 0 0 1 0 0.1h-0.2a0.05 0.05 0 0 1 0 -0.1z" fill="#000000" fill-rule="nonzero"/></g></svg>