<svg version="1.1" id="Layer_1" xmlns="http://www.w3.org/2000/svg" xmlns:xlink="http://www.w3.org/1999/xlink" x="0px" y="0px" viewBox="0 0 40 40" style="enable-background:new 0 0 455 455;" xml:space="preserve" width="40" height="40">
  <path d="M28.715 0.91c-3.405 0 -6.593 1.542 -8.715 4.125 -2.122 -2.583 -5.31 -4.125 -8.715 -4.125C5.063 0.91 0 5.972 0 12.195 0 17.067 2.905 22.703 8.636 28.946c4.41 4.804 9.207 8.524 10.572 9.55l0.792 0.595 0.792 -0.595c1.365 -1.026 6.162 -4.745 10.572 -9.549C37.094 22.703 40 17.067 40 12.195c0 -6.223 -5.063 -11.285 -11.285 -11.285zm0.706 26.253c-3.627 3.951 -7.529 7.146 -9.421 8.618 -1.892 -1.472 -5.794 -4.667 -9.421 -8.618C5.383 21.503 2.637 16.327 2.637 12.195c0 -4.768 3.879 -8.648 8.648 -8.648 3.138 0 6.035 1.71 7.562 4.463l1.153 2.081 1.153 -2.081c1.526 -2.753 4.424 -4.463 7.562 -4.463 4.768 0 8.648 3.879 8.648 8.648 0 4.132 -2.746 9.308 -7.941 14.968z"/>
</svg>
