<svg fill="#ffc532" width="100px" height="100px" viewBox="0 0 3 3" xmlns="http://www.w3.org/2000/svg">
  <path d="M2.75 1.209a0.125 0.125 0 0 0 -0.107 -0.084l-0.711 -0.104L1.613 0.375a0.125 0.125 0 0 0 -0.225 0L1.069 1.02 0.357 1.125a0.125 0.125 0 0 0 -0.101 0.085 0.125 0.125 0 0 0 0.031 0.125l0.516 0.5 -0.125 0.71a0.125 0.125 0 0 0 0.05 0.125 0.125 0.125 0 0 0 0.131 0.009L1.5 2.345l0.637 0.335a0.116 0.116 0 0 0 0.058 0.015 0.125 0.125 0 0 0 0.074 -0.024 0.125 0.125 0 0 0 0.05 -0.125l-0.125 -0.71 0.516 -0.5A0.125 0.125 0 0 0 2.75 1.209Zm-0.769 0.5a0.125 0.125 0 0 0 -0.036 0.111l0.09 0.524 -0.47 -0.25a0.125 0.125 0 0 0 -0.117 0l-0.47 0.25 0.09 -0.524a0.125 0.125 0 0 0 -0.036 -0.111l-0.375 -0.375 0.526 -0.076a0.125 0.125 0 0 0 0.095 -0.069L1.5 0.713l0.235 0.477a0.125 0.125 0 0 0 0.095 0.069l0.526 0.076Z"/>
</svg>
